<?xml version="1.0" encoding="utf-8"?>
<!-- Generator: Adobe Illustrator 19.0.0, SVG Export Plug-In . SVG Version: 6.00 Build 0)  -->
<svg version="1.1" id="Layer_1"
	xmlns="http://www.w3.org/2000/svg"
	xmlns:xlink="http://www.w3.org/1999/xlink" x="0px" y="0px" viewBox="114 -24 840 840" style="enable-background:new 114 -24 840 840;" xml:space="preserve">
	<style type="text/css">
	.st0{fill:none;stroke:#4DB6AC;stroke-width:14;}
	.st1{fill:none;stroke:#111111;stroke-width:14;}
	.st2{fill:#FFFFFF;}
	.st3{fill:#FFFFFF;filter:url(#Adobe_OpacityMaskFilter);}
	.st4{mask:url(#path-3-inside-1_327_622);fill:#4DB6AC;}
	.st5{fill:none;stroke:#111111;stroke-width:4;}
	.st6{fill:#4DB6AC;stroke:#4DB6AC;}
	.st7{fill:none;}
	</style>
	<circle class="st0" cx="534" cy="396" r="413"/>
	<circle class="st1" cx="534" cy="396" r="399"/>
	<path class="st2" d="M534,775c209.3,0,379-169.7,379-379S743.3,17,534,17S155,186.7,155,396S324.7,775,534,775z M534,641
	c135.3,0,245-109.7,245-245S669.3,151,534,151S289,260.7,289,396S398.7,641,534,641z"/>
	<defs>
		<filter id="Adobe_OpacityMaskFilter" filterUnits="userSpaceOnUse" x="151" y="13" width="766" height="766">
			<feColorMatrix type="matrix" values="1 0 0 0 0  0 1 0 0 0  0 0 1 0 0  0 0 0 1 0"/>
		</filter>
	</defs>
	<mask maskUnits="userSpaceOnUse" x="151" y="13" width="766" height="766" id="path-3-inside-1_327_622">
		<path class="st3" d="M534,775c209.3,0,379-169.7,379-379S743.3,17,534,17S155,186.7,155,396S324.7,775,534,775z M534,641
		c135.3,0,245-109.7,245-245S669.3,151,534,151S289,260.7,289,396S398.7,641,534,641z"/>
	</mask>
	<path class="st4" d="M909,396c0,207.1-167.9,375-375,375v8c211.5,0,383-171.5,383-383H909z M534,21c207.1,0,375,167.9,375,375h8
	c0-211.5-171.5-383-383-383V21z M159,396c0-207.1,167.9-375,375-375v-8c-211.5,0-383,171.5-383,383H159z M534,771
	c-207.1,0-375-167.9-375-375h-8c0,211.5,171.5,383,383,383V771z M775,396c0,133.1-107.9,241-241,241v8c137.5,0,249-111.5,249-249
	H775z M534,155c133.1,0,241,107.9,241,241h8c0-137.5-111.5-249-249-249V155z M293,396c0-133.1,107.9-241,241-241v-8
	c-137.5,0-249,111.5-249,249H293z M534,637c-133.1,0-241-107.9-241-241h-8c0,137.5,111.5,249,249,249V637z"/>
	<circle class="st5" cx="534" cy="396" r="219"/>
	<rect x="128.5" y="296.5" class="st6" width="811" height="199"/>
	<path class="st2" d="M225.9,372.4V360H249v70h-13.8v-57.6H225.9z M262.3,394.1c0-11.1,2-19.7,6-26c4-6.3,10.7-9.4,20-9.4
	c9.3,0,15.9,3.1,19.9,9.4c4,6.3,6,14.9,6,26c0,11.1-2,19.9-6,26.2c-4,6.3-10.6,9.5-19.9,9.5c-9.3,0-15.9-3.2-20-9.5
	C264.3,414,262.3,405.2,262.3,394.1z M300.9,394.1c0-4.7-0.3-8.7-1-11.9c-0.6-3.3-1.8-5.9-3.6-8c-1.8-2-4.5-3.1-8.1-3.1
	c-3.6,0-6.3,1-8.2,3.1c-1.8,2-3,4.7-3.6,8c-0.6,3.2-0.9,7.2-0.9,11.9c0,4.9,0.3,9,0.9,12.3c0.6,3.3,1.8,5.9,3.6,8c1.9,2,4.6,3,8.2,3
	c3.6,0,6.3-1,8.2-3c1.9-2,3.1-4.7,3.6-8C300.6,403.1,300.9,399,300.9,394.1z M324.3,394.1c0-11.1,2-19.7,6-26c4-6.3,10.7-9.4,20-9.4
	s15.9,3.1,19.9,9.4c4,6.3,6,14.9,6,26c0,11.1-2,19.9-6,26.2c-4,6.3-10.6,9.5-19.9,9.5s-15.9-3.2-20-9.5
	C326.3,414,324.3,405.2,324.3,394.1z M362.9,394.1c0-4.7-0.3-8.7-1-11.9c-0.6-3.3-1.8-5.9-3.6-8c-1.8-2-4.5-3.1-8.1-3.1
	s-6.3,1-8.2,3.1c-1.8,2-3,4.7-3.6,8c-0.6,3.2-0.9,7.2-0.9,11.9c0,4.9,0.3,9,0.9,12.3c0.6,3.3,1.8,5.9,3.6,8c1.9,2,4.6,3,8.2,3
	s6.3-1,8.2-3c1.9-2,3.1-4.7,3.6-8C362.6,403.1,362.9,399,362.9,394.1z M384.9,377.2c0-4.9,1.4-8.7,4.2-11.4c2.9-2.8,6.6-4.1,11-4.1
	s8.1,1.4,10.9,4.1c2.9,2.8,4.3,6.6,4.3,11.4c0,4.9-1.4,8.8-4.3,11.5c-2.8,2.8-6.5,4.1-10.9,4.1s-8.2-1.4-11-4.1
	C386.3,386,384.9,382.1,384.9,377.2z M446.5,362.8L408.8,430h-13.1l37.6-67.2H446.5z M400,369.7c-3.5,0-5.3,2.5-5.3,7.5
	c0,5.1,1.8,7.6,5.3,7.6c1.7,0,3.1-0.6,4-1.8c1-1.3,1.4-3.2,1.4-5.8C405.5,372.2,403.7,369.7,400,369.7z M427,415.5
	c0-4.9,1.4-8.7,4.2-11.4c2.9-2.8,6.6-4.1,11-4.1c4.5,0,8.1,1.4,10.8,4.1c2.8,2.7,4.2,6.5,4.2,11.4s-1.4,8.8-4.2,11.5
	c-2.8,2.8-6.4,4.1-10.8,4.1c-4.5,0-8.2-1.4-11-4.1C428.4,424.3,427,420.4,427,415.5z M442.2,408c-3.6,0-5.5,2.5-5.5,7.5
	c0,5.1,1.8,7.6,5.5,7.6c3.6,0,5.4-2.5,5.4-7.6C447.6,410.5,445.8,408,442.2,408z M513.5,430.7c-4.7,0-8.9-0.8-12.7-2.4
	c-3.7-1.6-6.7-3.9-8.8-6.9c-2.2-3-3.3-6.6-3.4-10.7h14.4c0.2,2.8,1.2,4.9,2.9,6.5c1.8,1.6,4.2,2.4,7.3,2.4c3.1,0,5.6-0.7,7.4-2.2
	c1.8-1.5,2.7-3.5,2.7-6c0-2-0.6-3.6-1.8-4.9c-1.2-1.3-2.8-2.3-4.6-3c-1.8-0.8-4.3-1.6-7.5-2.5c-4.4-1.3-7.9-2.5-10.7-3.7
	c-2.7-1.3-5-3.2-7-5.7c-1.9-2.6-2.9-6-2.9-10.2c0-4,1-7.4,3-10.4s4.8-5.2,8.4-6.7c3.6-1.6,7.7-2.4,12.3-2.4c6.9,0,12.5,1.7,16.8,5.1
	c4.4,3.3,6.8,8,7.2,14h-14.8c-0.1-2.3-1.1-4.2-3-5.7c-1.8-1.5-4.2-2.3-7.2-2.3c-2.6,0-4.7,0.7-6.3,2c-1.5,1.3-2.3,3.3-2.3,5.9
	c0,1.8,0.6,3.3,1.7,4.5c1.2,1.2,2.7,2.1,4.4,2.9c1.8,0.7,4.3,1.5,7.5,2.5c4.4,1.3,7.9,2.6,10.7,3.8c2.8,1.3,5.1,3.2,7.1,5.8
	c2,2.6,3,5.9,3,10.1c0,3.6-0.9,6.9-2.8,10c-1.9,3.1-4.6,5.5-8.2,7.4C522.7,429.8,518.5,430.7,513.5,430.7z M562.3,373.8v16.8h22.6
	v10.7h-22.6v17.8h25.4V430h-38.9v-67.1h38.9v10.9H562.3z M596.7,396.4c0-6.6,1.5-12.5,4.4-17.7c3-5.2,7.1-9.3,12.2-12.2
	c5.2-2.9,11-4.4,17.4-4.4c7.5,0,14,1.9,19.7,5.8c5.6,3.8,9.6,9.2,11.8,15.9h-15.5c-1.5-3.2-3.7-5.6-6.5-7.2c-2.8-1.6-6-2.4-9.6-2.4
	c-3.9,0-7.4,0.9-10.5,2.8c-3,1.8-5.4,4.4-7.1,7.7c-1.7,3.3-2.5,7.2-2.5,11.7c0,4.4,0.8,8.3,2.5,11.7c1.7,3.3,4.1,5.9,7.1,7.8
	c3.1,1.8,6.6,2.7,10.5,2.7c3.6,0,6.8-0.8,9.6-2.4c2.8-1.7,5-4.1,6.5-7.3h15.5c-2.2,6.8-6.2,12.2-11.8,16c-5.6,3.8-12.1,5.7-19.7,5.7
	c-6.4,0-12.2-1.4-17.4-4.3c-5.1-2.9-9.2-7-12.2-12.2C598.2,408.9,596.7,403,596.7,396.4z M686.9,363v41.5c0,4.5,1.2,8,3.6,10.5
	c2.4,2.4,5.7,3.6,10,3.6c4.4,0,7.7-1.2,10.1-3.6c2.4-2.4,3.6-5.9,3.6-10.5V363h13.5v41.4c0,5.7-1.2,10.5-3.7,14.5
	c-2.4,3.9-5.7,6.8-9.9,8.8c-4.1,2-8.7,3-13.7,3c-5,0-9.5-1-13.6-3c-4-2-7.2-4.9-9.6-8.8c-2.4-4-3.6-8.8-3.6-14.5V363H686.9z
	 M775.2,430l-14.8-26.1h-6.3V430h-13.4v-67h25.2c5.2,0,9.6,0.9,13.2,2.8c3.6,1.8,6.4,4.3,8.2,7.4c1.9,3.1,2.8,6.5,2.8,10.4
	c0,4.4-1.3,8.4-3.8,12c-2.6,3.5-6.4,6-11.4,7.3l16,27.2H775.2z M754.1,393.8h11.2c3.6,0,6.4-0.9,8.2-2.6c1.8-1.8,2.7-4.3,2.7-7.4
	c0-3.1-0.9-5.4-2.7-7.1c-1.8-1.7-4.5-2.6-8.2-2.6h-11.2V393.8z M815.6,373.8v16.8h22.6v10.7h-22.6v17.8H841V430h-38.9v-67.1H841
	v10.9H815.6z"/>
	<path d="M441.5,266.3l16.2,9.8l-4.3-18.5l14.3-12.4l-18.9-1.6l-7.4-17.4l-7.4,17.4l-18.9,1.6l14.3,12.4l-4.3,18.5L441.5,266.3z"/>
	<path d="M534.5,241.7l21.4,12.9l-5.7-24.3l18.9-16.4l-24.9-2.1l-9.7-22.9l-9.7,22.9l-24.9,2.1l18.9,16.4l-5.7,24.3L534.5,241.7z"/>
	<path d="M625.5,266.3l16.2,9.8l-4.3-18.5l14.3-12.4l-18.9-1.6l-7.4-17.4l-7.4,17.4l-18.9,1.6l14.3,12.4l-4.3,18.5L625.5,266.3z"/>
	<path d="M625.5,524.7l-16.2-9.8l4.3,18.5l-14.3,12.4l18.9,1.6l7.4,17.4l7.4-17.4l18.9-1.6l-14.3-12.4l4.3-18.5L625.5,524.7z"/>
	<path d="M532.5,549.3l-21.4-12.9l5.7,24.3L497.9,577l24.9,2.1l9.7,22.9l9.7-22.9l24.9-2.1l-18.9-16.4l5.7-24.3L532.5,549.3z"/>
	<path d="M441.5,524.7l-16.2-9.8l4.3,18.5l-14.3,12.4l18.9,1.6l7.4,17.4l7.4-17.4l18.9-1.6l-14.3-12.4l4.3-18.5L441.5,524.7z"/>
	<path id="SVGID_x5F_1_x5F_" class="st7" d="M744.7,134.3c131.8,114.6,145.7,314.3,31.1,446s-314.3,145.7-446,31.1
	s-145.7-314.3-31.1-446S612.9,19.7,744.7,134.3z"/>
	<text>
		<textPath xlink:href="#SVGID_x5F_1_x5F_" startOffset="39.6175%">
			<tspan style="font-family:"Poppins-Medium"; font-size:48px;">Safe and Trusted</tspan>
		</textPath>
	</text>
	<path id="SVGID_x5F_2_x5F_" class="st7" d="M836.2,309.9c56.9,165.1-30.9,345-195.9,401.9s-345-30.9-401.9-195.9
	s30.9-345,195.9-401.9S779.3,144.8,836.2,309.9z"/>
	<text>
		<textPath xlink:href="#SVGID_x5F_2_x5F_" startOffset="94.9642%">
			<tspan style="font-family:"Poppins-Medium"; font-size:48px;">Safe and Trusted</tspan>
		</textPath>
	</text>
</svg>
